<svg width="100" height="100" viewBox="0 0 100 100" fill="none" xmlns="http://www.w3.org/2000/svg">
<path d="M37.6405 34.6683C39.6103 34.657 41.5363 34.9794 43.2882 35.5927C44.5149 36.0219 45.6691 36.5565 46.7554 37.1636C46.867 37.226 46.9777 37.2891 47.0875 37.3528C48.1608 37.5422 49.2056 37.8149 49.8773 38.1094C50.4371 38.3553 50.7014 38.7353 50.9295 39.0649C51.0844 39.2907 51.2157 39.4891 51.4068 39.6045C51.5118 39.6682 51.6601 39.7477 51.836 39.8438C52.4022 40.1493 53.2799 40.6577 53.9917 41.3739C54.0048 41.2355 54.0154 41.0937 54.0252 40.9522C54.0335 40.8427 54.0423 40.7327 54.0534 40.6241C54.1313 39.8009 55.1593 39.3795 55.7314 39.1595C55.7416 39.1553 55.7522 39.1512 55.7625 39.1469C55.897 39.0949 56.0123 39.0271 56.1485 38.947C56.4762 38.7557 56.9127 38.495 58.0304 38.2622C58.2891 38.0851 58.5531 37.9161 58.8257 37.7546C61.8304 36.0914 65.1662 34.5998 70.525 34.9453C70.5937 34.9414 70.664 34.9376 70.7352 34.9347C72.0831 34.8406 74.1918 35.1732 75.3672 36.0023L75.3677 36.0028C76.2793 36.7391 76.7709 37.359 77.1481 37.8765C79.7252 40.187 81.5355 43.0757 82.3598 46.4994C82.6091 47.5735 82.7441 48.7067 82.7196 49.8697C82.6983 50.9388 82.529 52.035 82.2083 53.0798C82.1297 53.7231 82.0213 54.3505 81.8767 54.9249C81.6756 55.7293 81.4063 56.427 81.0848 56.9247C80.311 58.1374 78.9919 58.9573 78.0599 59.3953C77.9061 59.4696 77.7593 59.5373 77.6235 59.5996C77.0192 60.096 76.3967 60.5444 75.7513 60.9574C75.736 60.9669 75.7204 60.9762 75.7051 60.9856C75.629 60.9653 75.5518 60.9428 75.474 60.9186C74.5098 60.6067 73.7336 60.9439 72.3992 61.2476C71.825 61.3746 71.1471 61.4847 70.3677 61.4825C69.8642 61.4795 69.6071 61.2062 69.4102 60.9856C69.3521 60.9205 69.2985 60.8593 69.2447 60.8094C69.0604 60.6383 68.8631 60.8135 68.6154 61.0142C68.2992 61.2746 67.8858 61.5773 67.4429 61.2161C66.0947 60.0572 65.4356 60.5163 64.8118 60.8676C64.6355 60.9693 64.4734 61.0592 64.3243 61.0909C63.839 61.1944 63.3209 60.7762 63.0139 60.3202C62.7679 59.9609 62.0317 59.9408 61.415 60.0179C61.1825 60.0481 60.9297 59.9381 60.6411 59.8049C60.3431 59.6675 59.9993 59.5016 59.5797 59.4375C58.5134 59.2697 57.9604 59.1331 57.5206 59.0294C57.3968 59.0002 57.2762 58.968 57.1588 58.9391C56.787 58.8473 56.3535 58.6873 55.9193 58.5174C55.3988 58.3142 54.8819 58.1004 54.4423 57.9788C54.0398 57.5953 53.655 57.2003 53.2819 56.7956C52.708 57.0292 52.2861 57.1884 51.9855 57.8351C51.6443 58.5611 51.1627 59.2072 50.6071 59.4822C50.3514 59.6097 50.1029 59.8015 49.8346 60.0009C49.4765 60.2671 49.1011 60.5325 48.6708 60.658C48.3215 60.7581 47.9415 60.6879 47.6089 60.6202C47.5051 60.5991 47.4061 60.5786 47.3142 60.5629C47.0788 60.6998 46.8399 60.8353 46.5981 60.9705C46.5774 61.0276 46.5564 61.09 46.5345 61.154C46.4241 61.4749 46.2765 61.8713 45.9829 62.1677C45.5222 62.6342 44.9489 62.723 44.3593 62.7874C43.8947 62.8391 43.4214 62.8768 42.9197 63.0781C42.5782 63.2151 42.2052 63.4282 41.8175 63.6299C41.2506 63.9287 40.6478 64.1973 40.2012 64.1714C40.033 64.1622 39.869 64.0249 39.7103 63.8866C39.7096 63.8857 39.7086 63.885 39.7079 63.8842C39.6972 63.8748 39.6866 63.8653 39.6759 63.856C38.6529 64.1188 37.5852 64.3134 36.5005 64.4218C36.4057 64.46 36.3091 64.497 36.2126 64.5325C36.0464 64.5937 35.8795 64.6522 35.7183 64.712C35.4027 64.8208 35.1106 64.9321 34.8813 65.0799C34.5025 65.3297 33.5704 65.3713 32.59 65.3021C31.9408 65.2582 31.2801 65.1731 30.7081 65.1323C30.3744 65.109 30.1521 64.8423 29.9386 64.5655C29.737 64.306 29.5447 64.0389 29.2457 63.9361C29.0954 63.8844 28.9142 63.8686 28.7175 63.8468C28.5445 63.8277 28.3609 63.8048 28.1839 63.7522C28.0191 63.7027 27.7416 63.4401 27.407 63.0888C27.2001 62.8717 26.9733 62.622 26.736 62.3696C25.9441 61.9235 25.1866 61.4129 24.4744 60.8434C24.238 60.8138 23.9874 60.8265 23.7213 60.8972C23.5304 60.948 23.3239 61.0304 23.111 61.1117C22.8214 61.2224 22.519 61.3324 22.2264 61.3612C21.9978 61.3837 21.8339 61.3096 21.8195 61.1763C21.813 61.1142 21.8385 61.0404 21.8618 60.9739C21.8884 60.8978 21.9123 60.8305 21.8826 60.7982C21.8612 60.7751 21.8022 60.7817 21.7302 60.789C21.6154 60.8009 21.4661 60.8143 21.3806 60.7167C21.0631 60.3545 20.7601 59.8923 20.4853 59.4298C20.18 58.9177 19.9037 58.398 19.6376 58.0147C19.3375 57.5854 19.139 56.8312 18.9981 56.0774C18.8965 55.5474 18.8225 55.0247 18.717 54.5828C18.614 54.1515 18.3775 53.7538 18.1572 53.3404C17.8931 52.847 17.66 52.3503 17.7299 51.8642C17.7445 51.7668 17.9186 51.6161 18.1397 51.4347C18.2964 51.306 18.4771 51.1613 18.6417 51.0077C18.5584 50.4627 18.5087 49.8946 18.4975 49.3286C18.4696 49.3099 18.441 49.2901 18.4121 49.2704C18.4115 49.2701 18.4107 49.2697 18.4101 49.2694C17.759 48.8368 16.8753 48.0955 17.4808 47.1206C17.6352 46.8789 17.8955 46.7488 18.1295 46.6377C18.3596 46.5285 18.5659 46.4366 18.633 46.2689C18.7092 46.0785 18.6201 45.8242 18.5335 45.5361C18.4108 45.1347 18.2968 44.6553 18.6199 44.3006C18.6419 44.2766 18.6658 44.2507 18.6903 44.2239C18.9215 43.9707 19.2777 43.6008 19.8512 43.3601C20.4413 42.1961 21.212 41.1459 22.1089 40.2509C23.5957 38.7656 25.358 37.7984 27.0259 37.2325C27.8265 36.9614 28.8281 37.1979 29.6254 37.9318C30.4462 38.6581 31.0629 39.7719 31.4505 40.9954C31.8399 42.2199 32.0016 43.4694 32.0749 44.4739C32.1482 45.4761 32.1072 46.1521 31.9453 46.4004C31.656 46.8133 31.5448 47.2044 31.5602 47.4938C31.5721 47.5199 31.584 47.545 31.5952 47.5685C31.6779 47.7447 31.9324 48.0103 32.224 48.2256C32.2907 48.2752 32.3593 48.3225 32.4274 48.3663C32.4818 48.4015 32.5297 48.4293 32.5706 48.4517C32.5396 48.4677 32.4588 48.4774 32.1283 48.6977C32.1464 48.7707 32.1626 48.8533 32.1764 48.9433C32.2903 49.9311 32.8239 51.8631 34.0442 53.2652C34.065 53.2738 34.0864 53.2825 34.1078 53.2909C34.5254 53.4603 35.0196 53.5753 35.2707 53.881C35.5952 54.2749 35.862 54.586 36.099 54.8453C36.1957 54.8894 36.2953 54.9314 36.3976 54.9705C38.0862 55.5513 40.1164 55.5863 42.1142 54.8895C42.7814 54.6591 43.4407 54.3518 44.0733 53.9747C44.6547 53.6283 45.2186 53.228 45.7567 52.7858C46.0008 52.4394 46.2096 52.0746 46.3893 51.738C46.6471 51.2608 46.8574 50.8324 47.0865 50.5442C47.4516 50.0877 47.9513 49.6927 48.429 49.3505C48.43 49.3239 48.4315 49.2977 48.4329 49.2723C48.4371 49.1912 48.4407 49.1149 48.4358 49.0472C48.419 48.8147 48.1676 48.8435 47.8731 48.8817C47.5001 48.9386 47.0462 49.0046 46.9093 48.5211C46.439 46.9598 45.5514 47.1677 44.9312 47.3492C44.7486 47.403 44.5842 47.4527 44.4491 47.453C44.0095 47.452 43.6961 46.9896 43.5057 46.513C43.3608 46.1363 42.6767 46.0511 42.1239 46.1374C41.9137 46.1686 41.7022 46.0699 41.4534 45.9598C41.1959 45.8457 40.8944 45.7183 40.5285 45.7191C39.6057 45.7252 39.1563 45.7713 38.7951 45.8035C38.6927 45.8136 38.5982 45.8232 38.5043 45.8356C38.2081 45.8744 37.8614 45.8893 37.5245 45.9224C37.1207 45.961 36.7311 46.0277 36.4442 46.1568C35.7508 45.9314 35.0602 45.744 34.3404 45.6473C33.9781 45.5951 33.5259 45.0928 32.9838 44.2361C32.445 43.3771 31.8514 42.2423 31.4505 40.9954C31.0496 39.7501 30.9007 38.4646 31.1519 37.3931C31.3904 36.3257 32.0409 35.5742 32.8139 35.3559C34.3836 34.9121 36.0247 34.6761 37.6405 34.6683ZM50.8159 53.1318C50.9213 52.8711 50.8936 52.6248 50.7775 52.3791L50.8159 53.1318ZM72.2074 46.2024C71.9531 46.2532 71.713 46.3179 71.4844 46.4892C71.2626 46.6538 70.9995 46.6814 70.7338 46.7217C70.7491 46.6476 70.7544 46.6005 70.7464 46.6237C70.7419 46.6377 70.7348 46.6759 70.726 46.7227C70.6967 46.7271 70.6674 46.7317 70.6381 46.7367C70.6019 46.7428 70.5654 46.7492 70.5294 46.7566C70.4842 46.7006 70.4266 46.6431 70.357 46.5984C70.1727 46.7256 69.9448 46.8718 69.6889 47.0366C69.6701 47.1912 69.6719 47.3856 69.7015 47.6272C69.7228 47.8007 69.7592 48.005 69.7977 48.2134C69.8501 48.4972 69.907 48.7898 69.937 49.0282C69.9606 49.2143 69.945 49.2968 69.8953 49.233C69.8718 49.2032 69.8405 49.1422 69.8122 49.0874C69.78 49.025 69.7511 48.9697 69.7404 48.9748C69.7328 48.9789 69.7403 49.0284 69.7496 49.0884C69.7644 49.1844 69.784 49.3081 69.753 49.3238C69.6373 49.3821 69.4766 49.4009 69.3126 49.4252C69.1294 49.4523 68.9377 49.4893 68.8135 49.5853C68.6742 49.6927 68.3678 49.6329 68.0454 49.5887C67.8202 49.5578 67.5885 49.5339 67.4142 49.5669C67.2434 49.5992 67.1351 49.7733 67.034 49.9425C66.9117 50.1461 66.7963 50.3443 66.567 50.2914C66.5204 50.2805 66.3832 50.13 66.2096 49.9435C66.0865 49.8112 65.9446 49.6607 65.8047 49.5276C65.6082 49.6439 65.4074 49.7559 65.2012 49.8658C65.2084 49.8931 65.2159 49.921 65.2235 49.9493C65.2237 49.9499 65.2238 49.9506 65.224 49.9512C65.2904 50.2014 65.3689 50.4856 65.4061 50.7248C65.4563 50.7522 65.506 50.7805 65.5561 50.8078C65.6128 50.8386 65.6695 50.8694 65.726 50.9C66.3343 50.8065 66.8814 50.6881 67.2147 50.6826C67.49 50.6784 67.6169 50.8905 67.7337 51.0722C67.8133 51.1969 67.8867 51.3067 67.9828 51.3134C68.0343 51.317 68.1063 51.3118 68.1906 51.3042C68.5469 51.277 69.0507 51.1795 69.4423 51.4935C69.6205 51.6345 69.8343 51.9006 70.0642 52.1384C70.388 52.4809 70.7576 52.754 70.8658 52.6115C71.0464 52.3679 71.3278 52.4257 71.6194 52.4402C71.6246 52.4398 71.6302 52.4397 71.6354 52.4393C72.0037 52.4106 72.3039 52.3738 72.3278 52.1049C72.3479 51.7879 72.5211 51.8037 72.7881 51.8069C72.9669 51.8129 73.2017 51.8029 73.4076 51.6929C73.6508 51.5599 73.8976 51.5617 74.1179 51.5454C74.4212 51.5279 74.6706 51.4686 74.5321 51.1174C74.3736 50.7314 74.2424 50.4898 74.3903 50.3826C74.4584 50.3316 74.4693 50.2508 74.4753 50.1672C74.4834 50.056 74.483 49.9456 74.6117 49.8425C74.7179 49.7577 74.9742 49.6787 75.1977 49.5863C75.2673 49.5579 75.3334 49.5289 75.391 49.4994C75.3836 49.3978 75.3702 49.2947 75.3497 49.1913C75.307 49.1794 75.2597 49.1674 75.2109 49.1559C74.9655 49.0963 74.6651 49.0469 74.4981 48.9608C74.2339 48.827 74.3228 48.6366 74.3893 48.3901C74.4423 48.2027 74.4805 47.9857 74.3447 47.8213C74.2517 47.7087 74.0805 47.6197 73.9077 47.5408C73.6513 47.4231 73.3963 47.3345 73.3683 47.1482C73.3578 47.0782 73.4473 46.9356 73.5319 46.7901C73.5324 46.7893 73.5328 46.7884 73.5333 46.7877C73.5391 46.7778 73.5447 46.7679 73.5503 46.7581C73.1802 46.5135 72.777 46.3159 72.3661 46.1719C72.3126 46.1819 72.2594 46.192 72.2074 46.2024ZM32.6357 48.4391C32.6379 48.4395 32.6403 48.4397 32.6425 48.4401C32.711 48.4509 32.7998 48.4956 32.7925 48.5206C32.7876 48.5389 32.7246 48.536 32.5706 48.4517C32.5758 48.449 32.5799 48.4465 32.5832 48.4425C32.5938 48.4364 32.6035 48.4337 32.6357 48.4391ZM70.5585 46.7945C70.6159 46.8741 70.6469 46.9435 70.6639 46.9604C70.6129 47.095 70.5477 47.1959 70.5269 47.1046C70.5023 46.9905 70.4648 46.8858 70.4255 46.7809C70.4599 46.7719 70.4945 46.7638 70.5294 46.7566C70.5397 46.7694 70.5496 46.782 70.5585 46.7945ZM70.7013 46.8498C70.6936 46.8905 70.686 46.9287 70.6775 46.9556C70.6742 46.9658 70.6701 46.9667 70.6639 46.9604C70.6716 46.9399 70.6809 46.9194 70.6877 46.8978C70.6929 46.882 70.6966 46.8656 70.7013 46.8498ZM70.7338 46.7217C70.726 46.7595 70.7147 46.804 70.7013 46.8498C70.7054 46.8278 70.7098 46.8051 70.7139 46.7828C70.7176 46.762 70.7225 46.7416 70.726 46.7227C70.7286 46.7223 70.7312 46.7221 70.7338 46.7217Z" fill="#4ADE80"/>
</svg>
